<?xml version="1.0" encoding="UTF-8" standalone="no"?>
<!-- Created with Inkscape (http://www.inkscape.org/) -->

<svg
   viewBox="0 0 107.0164 43.128361"
   version="1.1"
   width="100%"
   height="100%"
   xml:space="preserve"
   xmlns="http://www.w3.org/2000/svg"
   xmlns:svg="http://www.w3.org/2000/svg"><defs
     id="defs1" /><g
     id="layer1"
     transform="translate(-7.6611838,-9.0371981)"><path
       id="path76"
       style="font-size:30px;line-height:1;font-family:Hermit;-inkscape-font-specification:Hermit;letter-spacing:-3px;word-spacing:0px;fill-opacity:1;fill-rule:evenodd;stroke:currentColor;stroke-width:0.25;stroke-linecap:round;stroke-linejoin:round;stroke-dashoffset:0.5;stroke-opacity:1"
       d="m 106.92953,35.653063 c -2.10008,0 -3.89386,-0.04144 -5.33008,0.61914 -0.7181,0.330292 -1.33392,0.872031 -1.72461,1.63086 -0.39068,0.758828 -0.56835,1.703676 -0.56835,2.884765 0,2.383276 1.14054,3.84829 2.64648,4.486328 1.50594,0.638039 3.28035,0.615235 4.85742,0.615235 h 0.38867 c 1.25716,0 2.22166,0.03496 2.71289,0.193359 0.24562,0.0792 0.35437,0.162601 0.42383,0.257813 0.0695,0.09521 0.13086,0.245585 0.13086,0.566406 0,0.333291 -0.0651,0.486382 -0.14062,0.585937 -0.0755,0.09956 -0.19869,0.191848 -0.46875,0.273438 -0.54013,0.163179 -1.57776,0.1875 -2.92774,0.1875 -1.34998,0 -2.38761,-0.02432 -2.92773,-0.1875 -0.27006,-0.08159 -0.39322,-0.173883 -0.46875,-0.273438 -0.0755,-0.09956 -0.14063,-0.252645 -0.14063,-0.585937 a 0.69386649,0.69386649 0 0 0 -0.69336,-0.69336 h -2.69922 a 0.69386649,0.69386649 0 0 0 -0.69335,0.69336 c 0,1.181089 0.17762,2.126073 0.56835,2.884765 0.39074,0.758693 1.00649,1.300848 1.72461,1.63086 1.43626,0.660023 3.23011,0.617187 5.33008,0.617187 2.09997,0 3.89382,0.04284 5.33008,-0.617187 0.71813,-0.330011 1.33387,-0.872167 1.72461,-1.63086 0.39073,-0.758692 0.56836,-1.703676 0.56836,-2.884765 0,-2.383276 -1.14059,-3.847745 -2.64649,-4.486328 -1.5059,-0.638584 -3.2802,-0.617188 -4.85742,-0.617188 H 106.66 c -1.25734,0 -2.22164,-0.03335 -2.71289,-0.191406 -0.24563,-0.07903 -0.35451,-0.162869 -0.42383,-0.257813 -0.0693,-0.09494 -0.13086,-0.245584 -0.13086,-0.566406 0,-0.333292 0.0651,-0.486382 0.14063,-0.585937 0.0755,-0.09956 0.19869,-0.191848 0.46875,-0.273438 0.54012,-0.163179 1.57775,-0.1875 2.92773,-0.1875 1.34998,0 2.38761,0.02432 2.92774,0.1875 0.27006,0.08159 0.39321,0.173882 0.46875,0.273438 0.0755,0.09956 0.14062,0.252646 0.14062,0.585937 a 0.69386649,0.69386649 0 0 0 0.69336,0.69336 h 2.69922 a 0.69386649,0.69386649 0 0 0 0.69336,-0.69336 c 0,-1.181089 -0.17767,-2.125937 -0.56836,-2.884765 -0.39069,-0.758829 -1.0065,-1.300568 -1.72461,-1.63086 -1.43621,-0.660583 -3.23,-0.61914 -5.33008,-0.61914 z m -3e-5,15.693899 c 4.2,0 6.93,0 6.93,-4.44 0,-4.38 -3.66,-4.41 -6.81,-4.41 h -0.39 c -2.52001,0 -3.96,-0.03 -3.96,-1.71 0,-1.74 1.52999,-1.74 4.23,-1.74 2.7,0 4.23,0 4.23,1.74 h 2.7 c 0,-4.44 -2.73,-4.44 -6.93,-4.44 -4.2,0 -6.93,0 -6.93,4.44 0,4.38 3.65999,4.41 6.81,4.41 h 0.39 c 2.52,0 3.96,0.03 3.96,1.71 0,1.74 -1.53,1.74 -4.23,1.74 -2.70001,0 -4.23,0 -4.23,-1.74 h -2.7 c 0,4.44 2.73,4.44 6.93,4.44 z M 73.59279,35.716336 c -1.724998,0 -3.02992,-0.0044 -4.072265,0.121093 -1.042345,0.125527 -1.880848,0.397981 -2.464844,1.027344 -0.583996,0.629363 -0.822573,1.494752 -0.939453,2.609375 -0.116881,1.114623 -0.115235,2.528862 -0.115235,4.404297 v 7.5 a 0.66205601,0.66205601 0 0 0 0.66211,0.662109 h 2.699219 a 0.66205601,0.66205601 0 0 0 0.662109,-0.662109 v -7.5 c 0,-1.199298 0.0038,-2.089719 0.06641,-2.707031 0.06264,-0.617313 0.184833,-0.915583 0.306641,-1.052735 0.121808,-0.137151 0.324615,-0.240885 0.845703,-0.30664 0.521088,-0.06576 1.29958,-0.07031 2.349609,-0.07031 h 0.06055 c 0.690062,0 1.68215,0.01421 2.41211,0.234375 0.36498,0.110085 0.64863,0.266174 0.822265,0.447266 0.173635,0.181091 0.273438,0.377439 0.273438,0.755859 a 0.66205601,0.66205601 0 0 0 0.662109,0.66211 h 2.699219 a 0.66205601,0.66205601 0 0 0 0.662109,-0.66211 c 0,-2.594442 -1.275852,-4.12977 -2.853515,-4.808594 -1.577664,-0.678823 -3.388219,-0.654296 -4.738282,-0.654296 z m -6.929955,15.662649 h 2.7 v -7.5 c 0,-4.8 0.03,-4.8 4.23,-4.8 h 0.06 c 1.38,0 4.17,0 4.17,2.1 h 2.7 c 0,-4.8 -4.23,-4.8 -6.93,-4.8 -6.9,0 -6.93,0 -6.93,7.5 z M 24.621098,28.290553 a 0.62474489,0.62474489 0 0 0 -0.623046,0.671875 l 1.710937,22.5 a 0.62474489,0.62474489 0 0 0 0.623047,0.578125 h 2.730469 a 0.62474489,0.62474489 0 0 0 0.605468,-0.46875 l 1.886719,-7.345703 1.91211,7.347656 a 0.62474489,0.62474489 0 0 0 0.605468,0.466797 h 2.699219 a 0.62474489,0.62474489 0 0 0 0.623047,-0.578125 l 1.710937,-22.5 a 0.62474489,0.62474489 0 0 0 -0.623047,-0.671875 h -2.730468 a 0.62474489,0.62474489 0 0 0 -0.623047,0.578125 l -0.792969,10.53125 -0.798828,-3.138672 A 0.62474489,0.62474489 0 0 0 32.931645,35.790553 H 30.17188 a 0.62474489,0.62474489 0 0 0 -0.605469,0.46875 l -0.796875,3.109375 -0.794922,-10.5 a 0.62474489,0.62474489 0 0 0 -0.623047,-0.578125 z m 1.710442,23.12554 h 2.73 l 2.49,-9.69 2.52,9.69 h 2.7 l 1.71,-22.5 h -2.73 l -1.08,14.34 -1.74,-6.84 h -2.76 l -1.74,6.78 -1.08,-14.28 h -2.73 z M 47.568425,9.1626811 c -2.099997,0 -4.000104,-0.05115 -5.457031,1.0800779 -1.456927,1.131228 -2.154297,3.268859 -2.154297,7.101563 0,3.832703 0.69737,5.970335 2.154297,7.101562 1.456927,1.131228 3.357034,1.080078 5.457031,1.080078 h 5.580079 a 0.68180125,0.68180125 0 0 0 0.68164,-0.68164 v -2.699219 a 0.68180125,0.68180125 0 0 0 -0.68164,-0.681641 h -5.580079 c -1.350064,0 -2.309699,-0.05406 -2.777343,-0.333984 -0.233822,-0.139964 -0.393868,-0.31446 -0.535157,-0.683594 -0.08626,-0.22536 -0.103866,-0.684033 -0.144531,-1.068359 h 10.386719 a 0.68180125,0.68180125 0 0 0 0.681641,-0.681641 v -1.351562 c 0,-3.832704 -0.69737,-5.970335 -2.154297,-7.101563 C 51.56853,9.1115321 49.668424,9.1626811 47.568425,9.1626811 Z m 0,4.0644529 c 1.350065,0 2.3097,0.05406 2.777344,0.333985 0.233822,0.139962 0.393868,0.314459 0.535156,0.683593 0.08626,0.22536 0.103867,0.684034 0.144532,1.06836 h -6.914063 c 0.04066,-0.384326 0.05827,-0.843 0.144531,-1.06836 0.141289,-0.369134 0.301335,-0.543631 0.535157,-0.683593 0.467644,-0.279927 1.42728,-0.333985 2.777343,-0.333985 z m -2.2e-5,11.617853 h 5.58 v -2.7 h -5.58 c -2.7,0 -4.23,0 -4.23,-3.45 h 11.16 v -1.35 c 0,-7.4999999 -2.73,-7.4999999 -6.93,-7.4999999 -4.2,0 -6.93,0 -6.93,7.4999999 0,7.5 2.73,7.5 6.93,7.5 z m -4.23,-8.85 c 0,-3.45 1.53,-3.45 4.23,-3.45 2.7,0 4.23,0 4.23,3.45 z M 8.4189965,9.1621985 A 0.6331975,0.6331975 0 0 0 7.786184,9.795011 v 22.5 a 0.6331975,0.6331975 0 0 0 0.6328125,0.632812 H 22.278372 a 0.6331975,0.6331975 0 0 0 0.632812,-0.632812 V 29.595792 A 0.6331975,0.6331975 0 0 0 22.278372,28.962979 H 11.751028 v -5.933593 h 4.947266 a 0.6331975,0.6331975 0 0 0 0.632812,-0.632813 v -2.701172 a 0.6331975,0.6331975 0 0 0 -0.632812,-0.632812 h -4.947266 v -5.933594 h 10.527344 a 0.6331975,0.6331975 0 0 0 0.632812,-0.632812 V 9.795011 A 0.6331975,0.6331975 0 0 0 22.278372,9.1621985 Z M 8.4187376,32.295676 H 22.278738 v -2.7 h -11.16 v -7.2 h 5.58 v -2.7 h -5.58 v -7.2 h 11.16 V 9.7956763 H 8.4187376 Z M 24.712249,9.1621985 a 0.54756889,0.54756889 0 0 0 -0.546875,0.546875 v 2.6992195 a 0.54756889,0.54756889 0 0 0 0.546875,0.546875 h 7.615234 l -8.0625,11.439452 a 0.54756889,0.54756889 0 0 0 0.447266,0.861328 h 13.861328 a 0.54756889,0.54756889 0 0 0 0.546875,-0.546875 v -2.699219 a 0.54756889,0.54756889 0 0 0 -0.546875,-0.546875 h -7.615235 l 8.0625,-11.439452 A 0.54756889,0.54756889 0 0 0 38.573577,9.1621985 Z m 7.28e-4,15.5467255 h 13.86 v -2.7 h -8.67 l 8.67,-12.2999995 h -13.86 v 2.7000005 h 8.67 z m 58.64432,3.503503 a 0.66489228,0.66489228 0 0 0 -0.664062,0.664063 v 22.5 a 0.66489228,0.66489228 0 0 0 0.664062,0.664062 h 3.300782 a 0.66489228,0.66489228 0 0 0 0.542968,-0.28125 l 3.087891,-4.390625 3.115234,4.392579 a 0.66489228,0.66489228 0 0 0 0.542969,0.279296 h 3.269528 a 0.66489228,0.66489228 0 0 0 0.54493,-1.044921 l -4.982427,-7.119141 4.982427,-7.119141 a 0.66489228,0.66489228 0 0 0 -0.54493,-1.044922 h -3.269528 a 0.66489228,0.66489228 0 0 0 -0.542969,0.279297 l -6.683593,9.453125 V 28.87649 a 0.66489228,0.66489228 0 0 0 -0.664063,-0.664063 z m -1.79e-4,23.164689 h 3.3 l 3.63,-5.16 3.66,5.16 h 3.270001 l -5.250001,-7.5 5.250001,-7.5 h -3.270001 l -7.89,11.16 v -18.66 h -2.7 z M 50.403827,26.670707 a 0.29502681,0.29502681 0 0 0 -0.292254,0.254896 l -0.36208,2.639211 c -1.080398,0.251736 -2.091737,0.678659 -3.006023,1.246455 l -2.123626,-1.610591 a 0.29502681,0.29502681 0 0 0 -0.386919,0.02646 l -2.319328,2.319325 a 0.29502681,0.29502681 0 0 0 -0.02634,0.386815 l 1.610597,2.123704 c -0.567752,0.914648 -0.992401,1.92578 -1.246098,3.003167 l -2.639961,0.364964 a 0.29502681,0.29502681 0 0 0 -0.254523,0.292228 v 3.279517 a 0.29502681,0.29502681 0 0 0 0.254907,0.292343 l 2.639016,0.362109 c 0.237473,1.016914 0.62861,1.973502 1.148189,2.844216 a 0.29502681,0.29502681 0 0 0 0.468869,0.05024 l 2.839349,-3.040212 a 0.29502681,0.29502681 0 0 0 0.06351,-0.297033 c -0.622238,-1.81624 -0.267829,-3.906145 1.109928,-5.432629 v 0 c 1.200521,-1.329695 2.903334,-1.932489 4.559006,-1.780032 l -3.04983,3.3791 a 0.29502681,0.29502681 0 0 0 -0.06997,0.257111 l 0.372257,1.808147 a 0.29502681,0.29502681 0 0 0 0,8.9e-5 l 0.372346,1.805295 a 0.29502681,0.29502681 0 0 0 0.259125,0.233874 l 1.834706,0.186114 1.834795,0.186113 a 0.29502681,0.29502681 0 0 0 0.248712,-0.09576 l 3.049624,-3.378825 c 0.319718,1.629639 -0.104075,3.385551 -1.304154,4.71478 a 0.29502681,0.29502681 0 0 0 0,8.8e-5 c -1.377844,1.526582 -3.420258,2.093743 -5.289479,1.65936 a 0.29502681,0.29502681 0 0 0 -0.289097,0.09349 l -2.747723,3.149568 a 0.29502681,0.29502681 0 0 0 0.09699,0.460933 c 0.632179,0.296679 1.297664,0.530051 1.991143,0.693509 l 0.36208,2.636893 a 0.29502681,0.29502681 0 0 0 0.292254,0.254818 h 3.279633 a 0.29502681,0.29502681 0 0 0 0.292224,-0.254818 l 0.362198,-2.636716 c 1.079778,-0.253668 2.091265,-0.678316 3.005934,-1.246068 l 2.123715,1.610567 a 0.29502681,0.29502681 0 0 0 0.3868,-0.02655 l 2.319328,-2.319328 a 0.29502681,0.29502681 0 0 0 0.02646,-0.38683 l -1.610508,-2.123597 c 0.567752,-0.914285 0.994643,-1.925713 1.246364,-3.006022 l 2.639223,-0.362109 a 0.29502681,0.29502681 0 0 0 0.254877,-0.292343 V 37.717224 A 0.29502681,0.29502681 0 0 0 64.475464,37.42499 L 61.835976,37.060114 C 61.584225,35.98215 61.157275,34.971103 60.589524,34.056859 L 62.20012,31.933155 A 0.29502681,0.29502681 0 0 0 62.17366,31.54634 l -2.319328,-2.319325 a 0.29502681,0.29502681 0 0 0 -0.3868,-0.02646 l -2.123715,1.610594 C 56.42956,30.243361 55.418191,29.816432 54.337882,29.564693 L 53.975684,26.925479 A 0.29502681,0.29502681 0 0 0 53.68346,26.670583 h -3.279633 z m 0.257385,0.589995 h 2.764862 l 0.355089,2.587401 a 0.29502681,0.29502681 0 0 0 0.231396,0.248535 c 1.154147,0.243435 2.228203,0.698716 3.185617,1.320759 a 0.29502681,0.29502681 0 0 0 0.338951,-0.01236 l 2.081855,-1.578881 1.955656,1.955558 -1.578973,2.081849 a 0.29502681,0.29502681 0 0 0 -0.01227,0.339064 c 0.622031,0.95744 1.077359,2.031531 1.320762,3.182743 a 0.29502681,0.29502681 0 0 0 0.248269,0.231205 l 2.587658,0.357775 v 2.765243 L 61.55269,41.09468 a 0.29502681,0.29502681 0 0 0 -0.248535,0.231308 c -0.243432,1.154147 -0.698731,2.228232 -1.320762,3.185676 a 0.29502681,0.29502681 0 0 0 0.01227,0.338981 l 1.578973,2.081855 -1.955656,1.955537 -2.081855,-1.578855 a 0.29502681,0.29502681 0 0 0 -0.338951,-0.01239 c -0.95706,0.621825 -2.031175,1.074439 -3.186266,1.320939 a 0.29502681,0.29502681 0 0 0 -0.230747,0.248358 l -0.354912,2.584442 h -2.765127 l -0.35503,-2.584442 a 0.29502681,0.29502681 0 0 0 -0.23045,-0.248358 C 49.484379,48.49103 48.914474,48.310639 48.368611,48.081102 l 2.370687,-2.71728 c 2.023888,0.407392 4.205482,-0.235879 5.686339,-1.876566 v 0 c 0,-3e-5 0,-5.9e-5 0,-8.9e-5 1.470768,-1.629063 1.89164,-3.844729 1.301498,-5.804706 a 0.29502681,0.29502681 0 0 0 -0.501407,-0.112562 l -3.321315,3.679802 -1.686176,-0.171098 -1.619269,-0.164255 -0.328627,-1.593074 v 0 l -0.342109,-1.661952 3.321198,-3.679815 a 0.29502681,0.29502681 0 0 0 -0.163074,-0.4873 c -2.012826,-0.388278 -4.172678,0.259515 -5.643299,1.888352 -1.480917,1.640795 -1.896509,3.876937 -1.285363,5.849319 l -2.446796,2.619959 c -0.422613,-0.780976 -0.738172,-1.628473 -0.927767,-2.524085 a 0.29502681,0.29502681 0 0 0 -0.248564,-0.231101 l -2.587304,-0.355088 v -2.765205 l 2.587687,-0.357776 a 0.29502681,0.29502681 0 0 0 0.247975,-0.230466 c 0.2465,-1.152159 0.699203,-2.226395 1.321027,-3.183484 a 0.29502681,0.29502681 0 0 0 -0.01233,-0.339061 l -1.578884,-2.081853 1.955537,-1.955554 2.081855,1.578881 a 0.29502681,0.29502681 0 0 0 0.338982,0.01236 c 0.957443,-0.622049 2.03144,-1.077328 3.185587,-1.320759 a 0.29502681,0.29502681 0 0 0 0.231396,-0.248536 l 0.355118,-2.587403 z" /></g></svg>
